<svg xmlns="http://www.w3.org/2000/svg" width="500" height="500" viewBox="0 0 500 500">
  <g fill="currentColor">
    <!-- Main body -->
    <path d="M 220.33 344.75 C217.02,347.98 215.19,349.00 212.73,349.00 C204.58,348.99 199.58,341.37 198.39,327.17 C197.52,316.64 196.25,315.26 189.03,316.99 C186.24,317.66 182.92,317.95 181.64,317.63 C177.65,316.62 174.11,313.10 173.42,309.44 C172.61,305.12 174.14,301.10 179.16,294.29 C182.71,289.48 183.00,288.58 183.04,282.29 C183.09,271.83 186.66,259.08 192.16,249.70 C200.59,235.33 213.03,225.66 230.59,219.84 C236.48,217.88 239.50,217.55 251.00,217.60 C265.74,217.67 270.61,218.81 283.97,225.34 C293.51,230.00 305.25,242.05 310.75,252.83 C316.09,263.29 316.20,265.00 311.50,265.00 C308.08,265.00 308.00,265.10 308.00,269.00 L 308.00 273.00 L 318.00 273.00 L 318.02 280.75 C318.04,287.02 318.43,288.98 320.07,291.00 C324.02,295.87 326.84,300.73 328.05,304.76 C329.15,308.44 329.05,309.18 327.04,312.43 C323.51,318.15 319.80,319.22 311.82,316.83 C306.17,315.13 304.65,317.15 303.12,328.38 C301.78,338.14 299.47,343.70 295.39,346.91 C290.02,351.13 282.26,348.54 277.45,340.92 C274.84,336.79 274.79,336.76 270.16,337.41 C258.65,339.01 246.22,339.22 236.75,337.97 C227.21,336.70 226.73,336.73 225.74,338.57 C225.17,339.63 222.74,342.41 220.33,344.75 Z"/>
    <!-- Left eye -->
    <path d="M 213.78 285.44 C217.66,287.55 218.79,287.37 222.08,284.08 C225.86,280.30 225.99,275.90 222.43,272.34 C220.28,270.19 219.24,269.86 216.18,270.35 C207.86,271.68 206.32,281.39 213.78,285.44 Z" fill="#FFFFFF"/>
    <!-- Right eye -->
    <path d="M 280.78 285.44 C284.66,287.55 285.79,287.37 289.08,284.08 C294.76,278.39 291.82,270.55 284.00,270.55 C280.79,270.55 279.34,271.10 277.89,272.88 C274.50,277.08 275.79,282.74 280.78,285.44 Z" fill="#FFFFFF"/>
    <!-- Smile -->
    <path d="M 245.98 296.43 L 246.10 296.48 C248.42,297.45 249.45,297.88 250.48,297.86 C251.32,297.84 252.15,297.51 253.68,296.93 C257.14,295.62 261.00,292.12 261.00,290.29 C261.00,289.25 260.40,289.00 257.50,289.00 C255.30,289.00 253.40,289.45 252.75,290.10 C251.68,291.17 248.32,291.17 247.25,290.10 C246.60,289.45 244.70,289.00 242.50,289.00 C239.60,289.00 239.00,289.25 239.00,290.29 C239.00,292.12 242.86,295.62 246.32,296.93 L 245.98 296.43 Z" fill="#FFFFFF"/>
    <!-- Left bracket -->
    <path d="M 178.79 257.90 C178.63,259.25 178.04,260.50 177.48,260.68 C176.92,260.86 173.63,258.16 170.17,254.67 L 163.89 248.33 L 170.50 242.14 C174.14,238.74 177.54,236.22 178.06,236.54 C179.95,237.71 178.92,241.70 176.00,244.50 C172.26,248.09 172.26,248.92 176.04,252.54 C178.12,254.53 178.99,256.24 178.79,257.90 Z"/>
    <!-- Right bracket -->
    <path d="M 329.25 242.30 C329.66,242.07 330.00,240.56 330.00,238.94 C330.00,236.18 329.76,236.00 326.00,236.00 C322.13,236.00 322.00,236.11 322.00,239.33 C322.00,241.17 322.29,242.96 322.65,243.32 C323.25,243.92 327.54,243.26 329.25,242.30 Z"/>
    <path d="M 336.11 248.33 L 329.50 242.14 C325.86,238.74 322.46,236.22 321.94,236.54 C320.05,237.71 321.08,241.70 324.00,244.50 C327.74,248.09 327.74,248.92 323.96,252.54 C321.88,254.53 321.01,256.24 321.21,257.90 C321.37,259.25 321.96,260.50 322.52,260.68 C323.08,260.86 326.37,258.16 329.83,254.67 L 336.11 248.33 Z"/>
    <!-- Small dots -->
    <path d="M 179.00 324.00 L 179.00 332.00 L 171.00 332.00 L 171.00 324.00 L 179.00 324.00 Z"/>
    <path d="M 329.00 324.00 L 329.00 332.00 L 321.00 332.00 L 321.00 324.00 L 329.00 324.00 Z"/>
    <path d="M 322.00 236.00 L 330.00 236.00 L 330.00 244.00 L 322.00 244.00 L 322.00 236.00 Z"/>
  </g>
</svg>
